<svg width="15" height="15" xmlns="http://www.w3.org/2000/svg"  viewBox="0 0 15 15">
  <path d="M11.833 7.118v.764L14 9.602l-1.182 2.295-2.56-.573-.985.573L8.879 14H6.12l-.394-2.103-.985-.573-2.56.573L1 9.603l2.167-1.72v-.765L1 5.398l1.182-2.295 2.56.573.985-.573L6.121 1H8.88l.394 2.103.985.573 2.56-.573L14 5.397l-2.167 1.72zm-3.429 2.5c1.206-.484 1.779-1.826 1.279-2.996S7.802 4.896 6.596 5.381c-1.206.485-1.779 1.826-1.279 2.997.5 1.17 1.881 1.726 3.087 1.24z" stroke="#C0BCCC" fill="none" stroke-linecap="round" stroke-linejoin="round"/>
</svg>
